{"title":"Sajjan - The Real Friend (2013) 480p DVD RIP PUNJABI MOVIE GOPI ","uid":8869963,"size":777814931,"categoryP":"video","categoryS":"hd___movies","magnet":"?xt=urn:btih:4f49d946e4b131091fea42d70eb6175d9140ba1e&amp;dn=Sajjan+-+The+Real+Friend+%282013%29+480p+DVD+RIP+PUNJABI+MOVIE+GOPI+&amp;tr=udp%3A%2F%2Ftracker.openbittorrent.com%3A80&amp;tr=udp%3A%2F%2Fopen.demonii.com%3A1337&amp;tr=udp%3A%2F%2Ftracker.coppersurfer.tk%3A6969&amp;tr=udp%3A%2F%2Fexodus.desync.com%3A6969","seeders":3,"leechers":0,"uploader":"jatt13","files":9,"time":1378035527,"description":"Sajjan - The Real Friend (2013) 480p DVD RIP PUNJABI MOVIE GOPI SAHIVideo\nID : 0\nFormat : AVC\nFormat/Info : Advanced Video Codec\nFormat profile : &lt;a class=&quot;__cf_email__&quot; href=&quot;/cdn-cgi/l/email-protection&quot; data-cfemail=&quot;8dc0ece4e3cdc1b8a3bc&quot;&gt;[email&amp;#160;protected]&lt;/a&gt;&lt;script cf-hash='f9e31' type=&quot;text/javascript&quot;&gt;\n/* &lt;![CDATA[ */!function(){try{var t=&quot;currentScript&quot;in document?document.currentScript:function(){for(var t=document.getElementsByTagName(&quot;script&quot;),e=t.length;e--;)if(t[e].getAttribute(&quot;cf-hash&quot;))return t[e]}();if(t&amp;&amp;t.previousSibling){var e,r,n,i,c=t.previousSibling,a=c.getAttribute(&quot;data-cfemail&quot;);if(a){for(e=&quot;&quot;,r=parseInt(a.substr(0,2),16),n=2;a.length-n;n+=2)i=parseInt(a.substr(n,2),16)^r,e+=String.fromCharCode(i);e=document.createTextNode(e),c.parentNode.replaceChild(e,c)}}}catch(u){}}();/* ]]&gt; */&lt;/script&gt;\nFormat settings, CABAC : Yes\nFormat settings, ReFrames : 1 frame\nCodec ID : H264\nDuration : 2h 27mn\nBit rate : 350 Kbps\nWidth : 640 pixels\nHeight : 360 pixels\nDisplay aspect ratio : 16:9\nFrame rate : 25.000 fps\nColor space : YUV\nChroma subsampling : 4:2:0\nBit depth : 8 bits\nScan type : Progressive\nBits/(Pixel*Frame) : 0.061\nStream size : 370 MiB (83%)\n\nAudio\nID : 1\nFormat : MPEG Audio\nFormat version : Version 1\nFormat profile : Layer 2\nCodec ID : 50\nDuration : 2h 27mn\nBit rate mode : Constant\nBit rate : 64.0 Kbps\nChannel(s) : 2 channels\nSampling rate : 44.1 KHz\nCompression mode : Lossy\nStream size : 67.4 MiB (15%)\nAlignment : Aligned on interleaves\nInterleave, duration : 41 ms (1.02 video frame)\nInterleave, preload duration : 52 ms\n","torrent":{"xt":"urn:btih:4f49d946e4b131091fea42d70eb6175d9140ba1e","amp;dn":"Sajjan+-+The+Real+Friend+%282013%29+480p+DVD+RIP+PUNJABI+MOVIE+GOPI+","amp;tr":["udp%3A%2F%2Ftracker.openbittorrent.com%3A80","udp%3A%2F%2Fopen.demonii.com%3A1337","udp%3A%2F%2Ftracker.coppersurfer.tk%3A6969","udp%3A%2F%2Fexodus.desync.com%3A6969"],"infoHash":"4f49d946e4b131091fea42d70eb6175d9140ba1e","infoHashBuffer":{"type":"Buffer","data":[79,73,217,70,228,177,49,9,31,234,66,215,14,182,23,93,145,64,186,30]},"announce":[],"urlList":[]}}